# xmcd
#
# Track frame offsets:
#	150
#	1562
#	15230
#	29672
#	50314
#	65664
#	100310
#	128477
#	151952
#	183100
#	199299
#	224524
#	241186
#	266530
#	298153
#
# Disc length: 4455 seconds
#
# Revision: 1
# Processed by: cddbd v1.5.1PL0 Copyright (c) Steve Scherf et al.
# Submitted via: EasyCDDAExtractor 5.1.0
#
DISCID=c811650f
DTITLE=Reverend Blues gang - Yours
DYEAR=2004
DGENRE=Blues
TTITLE0=RBG Overture
TTITLE1=RBG Intro
TTITLE2=Rock Me Baby
TTITLE3=Rebel Gang
TTITLE4=Dont Be Messin'
TTITLE5=Fade To Blue
TTITLE6=Hold On I'M Comin
TTITLE7=Superstition
TTITLE8=Louisiana Blues
TTITLE9=I Cant Hold Out
TTITLE10=The World Is Dying
TTITLE11=Hoochie Coochie Man
TTITLE12=Roadhouse Blues
TTITLE13=Everyday I Have The Blues
TTITLE14=Bullfrog Blues
EXTD=
EXTT0=
EXTT1=
EXTT2=
EXTT3=
EXTT4=
EXTT5=
EXTT6=
EXTT7=
EXTT8=
EXTT9=
EXTT10=
EXTT11=
EXTT12=
EXTT13=
EXTT14=
PLAYORDER=
